<svg xmlns="http://www.w3.org/2000/svg" xmlns:xlink="http://www.w3.org/1999/xlink" xmlns:s="https://github.com/nturley/netlistsvg" width="786" height="378"><style>svg {
  stroke:#000;
  fill:none;
}
text {
  fill:#000;
  stroke:none;
  font-size:10px;
  font-weight: bold;
  font-family: "Courier New", monospace;
}
line {
    stroke-linecap: round;
}
.nodelabel {
  text-anchor: middle;
}
.inputPortLabel {
  text-anchor: end;
}
.splitjoinBody {
  fill:#000;
}</style><g s:type="reduce_xor" transform="translate(213,69.5)" s:width="33" s:height="25" id="cell_\10"><s:alias val="$xor"/><s:alias val="$reduce_xor"/><s:alias val="$_XOR_"/><path d="M3,0 A30 25 0 0 1 3,25 A30 25 0 0 0 33,12.5 A30 25 0 0 0 3,0" fill="#eebaff" class="cell_\10"/><path d="M0,0 A30 25 0 0 1 0,25" class="cell_\10"/><g s:x="2" s:y="5" s:pid="A"/><g s:x="2" s:y="20" s:pid="B"/><g s:x="33" s:y="12.5" s:pid="Y"/></g><g s:type="mux-bus" transform="translate(425.3333333333333,62)" s:width="24" s:height="40" id="cell_\12"><s:alias val="$pmux-bus"/><s:alias val="$mux-bus"/><s:alias val="$_MUX_-bus"/><path d="M8,2 L8,0 L24,8 L24,32 L8,40 L8,38" fill="#ffffff" class="cell_\12"/><path d="M4,2 L4,0 L22,9 L22,31 L4,40 L4,38" fill="#ffffff" class="cell_\12"/><path d="M0,0 L20,10 L20,30 L0,40 Z" fill="#ffffff" class="cell_\12"/><text x="5" y="32" class="nodelabel cell_\12" s:attribute="">1</text><text x="5" y="13" class="nodelabel cell_\12" s:attribute="">0</text><g s:x="-1" s:y="10" s:pid="A"/><g s:x="-1" s:y="30" s:pid="B"/><g s:x="12" s:y="38" s:pid="S"/><g s:x="24.5" s:y="20" s:pid="Y"/></g><g s:type="mux-bus" transform="translate(587.6666666666666,72)" s:width="24" s:height="40" id="cell_\13"><s:alias val="$pmux-bus"/><s:alias val="$mux-bus"/><s:alias val="$_MUX_-bus"/><path d="M8,2 L8,0 L24,8 L24,32 L8,40 L8,38" fill="#ffffff" class="cell_\13"/><path d="M4,2 L4,0 L22,9 L22,31 L4,40 L4,38" fill="#ffffff" class="cell_\13"/><path d="M0,0 L20,10 L20,30 L0,40 Z" fill="#ffffff" class="cell_\13"/><text x="5" y="32" class="nodelabel cell_\13" s:attribute="">1</text><text x="5" y="13" class="nodelabel cell_\13" s:attribute="">0</text><g s:x="-1" s:y="10" s:pid="A"/><g s:x="-1" s:y="30" s:pid="B"/><g s:x="12" s:y="38" s:pid="S"/><g s:x="24.5" s:y="20" s:pid="Y"/></g><g s:type="mux-bus" transform="translate(717,82)" s:width="24" s:height="40" id="cell_\15"><s:alias val="$pmux-bus"/><s:alias val="$mux-bus"/><s:alias val="$_MUX_-bus"/><path d="M8,2 L8,0 L24,8 L24,32 L8,40 L8,38" fill="#ffffff" class="cell_\15"/><path d="M4,2 L4,0 L22,9 L22,31 L4,40 L4,38" fill="#ffffff" class="cell_\15"/><path d="M0,0 L20,10 L20,30 L0,40 Z" fill="#ffffff" class="cell_\15"/><text x="5" y="32" class="nodelabel cell_\15" s:attribute="">1</text><text x="5" y="13" class="nodelabel cell_\15" s:attribute="">0</text><g s:x="-1" s:y="10" s:pid="A"/><g s:x="-1" s:y="30" s:pid="B"/><g s:x="12" s:y="38" s:pid="S"/><g s:x="24.5" s:y="20" s:pid="Y"/></g><g s:type="dff" transform="translate(282,305)" s:width="30" s:height="40" id="cell_\20"><s:alias val="$dff"/><s:alias val="$_DFF_"/><s:alias val="$_DFF_P_"/><s:alias val="dff-bus"/><s:alias val="$dff-bus"/><s:alias val="$_DFF_-bus"/><s:alias val="$_DFF_P_-bus"/><rect width="30" height="40" x="0" y="0" fill="#ffef8b" class="cell_\20"/><path d="M0,35 L5,30 L0,25" class="cell_\20"/><g s:x="31" s:y="10" s:pid="Q"/><g s:x="-1" s:y="30" s:pid="CLK"/><g s:x="-1" s:y="30" s:pid="C"/><g s:x="-1" s:y="10" s:pid="D"/></g><g s:type="reduce_xor" transform="translate(77,143)" s:width="33" s:height="25" id="cell_\6"><s:alias val="$xor"/><s:alias val="$reduce_xor"/><s:alias val="$_XOR_"/><path d="M3,0 A30 25 0 0 1 3,25 A30 25 0 0 0 33,12.5 A30 25 0 0 0 3,0" fill="#eebaff" class="cell_\6"/><path d="M0,0 A30 25 0 0 1 0,25" class="cell_\6"/><g s:x="2" s:y="5" s:pid="A"/><g s:x="2" s:y="20" s:pid="B"/><g s:x="33" s:y="12.5" s:pid="Y"/></g><g s:type="reduce_xor" transform="translate(145,150.5)" s:width="33" s:height="25" id="cell_\8"><s:alias val="$xor"/><s:alias val="$reduce_xor"/><s:alias val="$_XOR_"/><path d="M3,0 A30 25 0 0 1 3,25 A30 25 0 0 0 33,12.5 A30 25 0 0 0 3,0" fill="#eebaff" class="cell_\8"/><path d="M0,0 A30 25 0 0 1 0,25" class="cell_\8"/><g s:x="2" s:y="5" s:pid="A"/><g s:x="2" s:y="20" s:pid="B"/><g s:x="33" s:y="12.5" s:pid="Y"/></g><g s:type="inputExt" transform="translate(216,325)" s:width="30" s:height="20" id="cell_clk"><text x="15" y="-4" class="nodelabel cell_clk" s:attribute="ref">clk</text><s:alias val="$_inputExt_"/><path d="M0,0 L0,20 L15,20 L30,10 L15,0 Z" fill="#8bcaff" class="cell_clk"/><g s:x="30" s:y="10" s:pid="Y"/></g><g s:type="inputExt" transform="translate(651,316)" s:width="30" s:height="20" id="cell_rst"><text x="15" y="-4" class="nodelabel cell_rst" s:attribute="ref">rst</text><s:alias val="$_inputExt_"/><path d="M0,0 L0,20 L15,20 L30,10 L15,0 Z" fill="#8bcaff" class="cell_rst"/><g s:x="30" s:y="10" s:pid="Y"/></g><g s:type="inputExt" transform="translate(348,143)" s:width="30" s:height="20" id="cell_enable"><text x="15" y="-4" class="nodelabel cell_enable" s:attribute="ref">enable</text><s:alias val="$_inputExt_"/><path d="M0,0 L0,20 L15,20 L30,10 L15,0 Z" fill="#8bcaff" class="cell_enable"/><g s:x="30" s:y="10" s:pid="Y"/></g><g s:type="inputExt" transform="translate(496,234)" s:width="30" s:height="20" id="cell_load_seed"><text x="15" y="-4" class="nodelabel cell_load_seed" s:attribute="ref">load_seed</text><s:alias val="$_inputExt_"/><path d="M0,0 L0,20 L15,20 L30,10 L15,0 Z" fill="#8bcaff" class="cell_load_seed"/><g s:x="30" s:y="10" s:pid="Y"/></g><g s:type="inputExt" transform="translate(419,173)" s:width="30" s:height="20" id="cell_seed_in"><text x="15" y="-4" class="nodelabel cell_seed_in" s:attribute="ref">seed_in</text><s:alias val="$_inputExt_"/><path d="M0,0 L0,20 L15,20 L30,10 L15,0 Z" fill="#8bcaff" class="cell_seed_in"/><g s:x="30" s:y="10" s:pid="Y"/></g><g s:type="inputExt" transform="translate(12,22)" s:width="30" s:height="20" id="cell_polynomial"><text x="15" y="-4" class="nodelabel cell_polynomial" s:attribute="ref">polynomial</text><s:alias val="$_inputExt_"/><path d="M0,0 L0,20 L15,20 L30,10 L15,0 Z" fill="#8bcaff" class="cell_polynomial"/><g s:x="30" s:y="10" s:pid="Y"/></g><g s:type="outputExt" transform="translate(716,346)" s:width="30" s:height="20" id="cell_rand_slv"><text x="15" y="-4" class="nodelabel cell_rand_slv" s:attribute="ref">rand_slv</text><s:alias val="$_outputExt_"/><path d="M30,0 L30,20 L15,20 L0,10 L15,0 Z" fill="#169300" class="cell_rand_slv"/><g s:x="0" s:y="10" s:pid="A"/></g><g s:type="constant" transform="translate(585,264)" s:width="30" s:height="20" id="cell_0000000000000000"><text x="15" y="-4" class="nodelabel cell_0000000000000000" s:attribute="ref">0x0</text><s:alias val="$_constant_"/><rect width="30" height="20" fill="#745bff" class="cell_0000000000000000"/><g s:x="31" s:y="10" s:pid="Y"/></g><g s:type="join" transform="translate(292.6666666666667,71.5)" s:width="5" s:height="40" id="cell_$join$,41,24,25,26,27,28,29,30,31,32,33,34,35,36,37,38,"><rect width="5" height="40" class="splitjoinBody" s:generic="body"/><s:alias val="$_join_"/><g s:x="5" s:y="20" s:pid="out"/><g transform="translate(-1,10)" s:x="-1" s:y="10" s:pid="in0"><text x="-3" y="-4" class="inputPortLabel">0</text></g><g transform="translate(-1,30)" s:x="-1" s:y="10" s:pid="in0"><text x="-3" y="-4" class="inputPortLabel">1:15</text></g></g><g s:type="split" transform="translate(23,79)" s:width="5" s:height="40" id="cell_$split$,24,25,26,27,28,29,30,31,32,33,34,35,36,37,38,39,"><rect width="5" height="100" class="splitjoinBody" s:generic="body"/><s:alias val="$_split_"/><g s:x="-1" s:y="20" s:pid="in"/><g transform="translate(5,10)" s:x="5" s:y="10" s:pid="out0"><text x="5" y="-4">10</text></g><g transform="translate(5,30)" s:x="5" s:y="10" s:pid="out0"><text x="5" y="-4">0:14</text></g><g transform="translate(5,50)" s:x="5" s:y="10" s:pid="out0"><text x="5" y="-4">15</text></g><g transform="translate(5,70)" s:x="5" s:y="10" s:pid="out0"><text x="5" y="-4">13</text></g><g transform="translate(5,90)" s:x="5" s:y="10" s:pid="out0"><text x="5" y="-4">12</text></g></g><line x1="178" x2="188" y1="163" y2="163" class="net_40 width_1" style="stroke-width: 1"/><line x1="188" x2="188" y1="163" y2="74.5" class="net_40 width_1" style="stroke-width: 1"/><line x1="188" x2="215" y1="74.5" y2="74.5" class="net_40 width_1" style="stroke-width: 1"/><line x1="29" x2="215" y1="89.5" y2="89.5" class="net_34 width_1" style="stroke-width: 1"/><line x1="313" x2="394" y1="315" y2="315" class="net_24,25,26,27,28,29,30,31,32,33,34,35,36,37,38,39 width_16" style="stroke-width: 2"/><line x1="394" x2="394" y1="315" y2="72" class="net_24,25,26,27,28,29,30,31,32,33,34,35,36,37,38,39 width_16" style="stroke-width: 2"/><line x1="394" x2="424.3333333333333" y1="72" y2="72" class="net_24,25,26,27,28,29,30,31,32,33,34,35,36,37,38,39 width_16" style="stroke-width: 2"/><line x1="313" x2="323" y1="315" y2="315" class="net_24,25,26,27,28,29,30,31,32,33,34,35,36,37,38,39 width_16" style="stroke-width: 2"/><line x1="323" x2="323" y1="315" y2="356" class="net_24,25,26,27,28,29,30,31,32,33,34,35,36,37,38,39 width_16" style="stroke-width: 2"/><circle cx="323" cy="315" r="3" style="fill:#000" class="net_24,25,26,27,28,29,30,31,32,33,34,35,36,37,38,39 width_16"/><circle cx="323" cy="356" r="3" style="fill:#000" class="net_24,25,26,27,28,29,30,31,32,33,34,35,36,37,38,39 width_16"/><line x1="323" x2="716" y1="356" y2="356" class="net_24,25,26,27,28,29,30,31,32,33,34,35,36,37,38,39 width_16" style="stroke-width: 2"/><line x1="313" x2="323" y1="315" y2="315" class="net_24,25,26,27,28,29,30,31,32,33,34,35,36,37,38,39 width_16" style="stroke-width: 2"/><line x1="323" x2="323" y1="315" y2="356" class="net_24,25,26,27,28,29,30,31,32,33,34,35,36,37,38,39 width_16" style="stroke-width: 2"/><line x1="323" x2="12" y1="356" y2="356" class="net_24,25,26,27,28,29,30,31,32,33,34,35,36,37,38,39 width_16" style="stroke-width: 2"/><line x1="12" x2="12" y1="356" y2="129.5" class="net_24,25,26,27,28,29,30,31,32,33,34,35,36,37,38,39 width_16" style="stroke-width: 2"/><line x1="12" x2="22" y1="129.5" y2="129.5" class="net_24,25,26,27,28,29,30,31,32,33,34,35,36,37,38,39 width_16" style="stroke-width: 2"/><line x1="298.6666666666667" x2="424.3333333333333" y1="92" y2="92" class="net_41,24,25,26,27,28,29,30,31,32,33,34,35,36,37,38 width_16" style="stroke-width: 2"/><line x1="378" x2="437.3333333333333" y1="153" y2="153" class="net_4 width_1" style="stroke-width: 1"/><line x1="437.3333333333333" x2="437.3333333333333" y1="153" y2="100" class="net_4 width_1" style="stroke-width: 1"/><line x1="449.8333333333333" x2="586.6666666666666" y1="82" y2="82" class="net_42,43,44,45,46,47,48,49,50,51,52,53,54,55,56,57 width_16" style="stroke-width: 2"/><line x1="449" x2="560" y1="183" y2="183" class="net_6,7,8,9,10,11,12,13,14,15,16,17,18,19,20,21 width_16" style="stroke-width: 2"/><line x1="560" x2="560" y1="183" y2="102" class="net_6,7,8,9,10,11,12,13,14,15,16,17,18,19,20,21 width_16" style="stroke-width: 2"/><line x1="560" x2="586.6666666666666" y1="102" y2="102" class="net_6,7,8,9,10,11,12,13,14,15,16,17,18,19,20,21 width_16" style="stroke-width: 2"/><line x1="526" x2="599.6666666666666" y1="244" y2="244" class="net_5 width_1" style="stroke-width: 1"/><line x1="599.6666666666666" x2="599.6666666666666" y1="244" y2="110" class="net_5 width_1" style="stroke-width: 1"/><line x1="612.1666666666666" x2="716" y1="92" y2="92" class="net_58,59,60,61,62,63,64,65,66,67,68,69,70,71,72,73 width_16" style="stroke-width: 2"/><line x1="616" x2="691" y1="274" y2="274" class="net_91,92,93,94,95,96,97,98,99,100,101,102,103,104,105,106 width_16" style="stroke-width: 2"/><line x1="691" x2="691" y1="274" y2="112" class="net_91,92,93,94,95,96,97,98,99,100,101,102,103,104,105,106 width_16" style="stroke-width: 2"/><line x1="691" x2="716" y1="112" y2="112" class="net_91,92,93,94,95,96,97,98,99,100,101,102,103,104,105,106 width_16" style="stroke-width: 2"/><line x1="681" x2="729" y1="326" y2="326" class="net_3 width_1" style="stroke-width: 1"/><line x1="729" x2="729" y1="326" y2="120" class="net_3 width_1" style="stroke-width: 1"/><line x1="246" x2="281" y1="335" y2="335" class="net_2 width_1" style="stroke-width: 1"/><line x1="741.5" x2="774" y1="102" y2="102" class="net_74,75,76,77,78,79,80,81,82,83,84,85,86,87,88,89 width_16" style="stroke-width: 2"/><line x1="774" x2="774" y1="102" y2="295" class="net_74,75,76,77,78,79,80,81,82,83,84,85,86,87,88,89 width_16" style="stroke-width: 2"/><line x1="774" x2="256" y1="295" y2="295" class="net_74,75,76,77,78,79,80,81,82,83,84,85,86,87,88,89 width_16" style="stroke-width: 2"/><line x1="256" x2="256" y1="295" y2="315" class="net_74,75,76,77,78,79,80,81,82,83,84,85,86,87,88,89 width_16" style="stroke-width: 2"/><line x1="256" x2="281" y1="315" y2="315" class="net_74,75,76,77,78,79,80,81,82,83,84,85,86,87,88,89 width_16" style="stroke-width: 2"/><line x1="29" x2="62" y1="129.5" y2="129.5" class="net_39 width_1" style="stroke-width: 1"/><line x1="62" x2="62" y1="129.5" y2="148" class="net_39 width_1" style="stroke-width: 1"/><line x1="62" x2="79" y1="148" y2="148" class="net_39 width_1" style="stroke-width: 1"/><line x1="29" x2="52" y1="149.5" y2="149.5" class="net_37 width_1" style="stroke-width: 1"/><line x1="52" x2="52" y1="149.5" y2="163" class="net_37 width_1" style="stroke-width: 1"/><line x1="52" x2="79" y1="163" y2="163" class="net_37 width_1" style="stroke-width: 1"/><line x1="110" x2="147" y1="155.5" y2="155.5" class="net_90 width_1" style="stroke-width: 1"/><line x1="29" x2="52" y1="169.5" y2="169.5" class="net_36 width_1" style="stroke-width: 1"/><line x1="52" x2="52" y1="169.5" y2="178" class="net_36 width_1" style="stroke-width: 1"/><line x1="52" x2="120" y1="178" y2="178" class="net_36 width_1" style="stroke-width: 1"/><line x1="120" x2="120" y1="178" y2="170.5" class="net_36 width_1" style="stroke-width: 1"/><line x1="120" x2="147" y1="170.5" y2="170.5" class="net_36 width_1" style="stroke-width: 1"/><line x1="246" x2="291.6666666666667" y1="82" y2="82" class="net_41 width_1" style="stroke-width: 1"/><line x1="29" x2="256" y1="109.5" y2="109.5" class="net_24,25,26,27,28,29,30,31,32,33,34,35,36,37,38 width_15" style="stroke-width: 2"/><line x1="256" x2="256" y1="109.5" y2="102" class="net_24,25,26,27,28,29,30,31,32,33,34,35,36,37,38 width_15" style="stroke-width: 2"/><line x1="256" x2="291.6666666666667" y1="102" y2="102" class="net_24,25,26,27,28,29,30,31,32,33,34,35,36,37,38 width_15" style="stroke-width: 2"/><rect x="160.5" y="351" width="22" height="9" class="net_24,25,26,27,28,29,30,31,32,33,34,35,36,37,38,39 width_16 busLabel_16" style="fill: white; stroke: none"/><text x="159.5" y="359" class="net_24,25,26,27,28,29,30,31,32,33,34,35,36,37,38,39 width_16 busLabel_16">/16/</text><rect x="160.5" y="351" width="22" height="9" class="net_24,25,26,27,28,29,30,31,32,33,34,35,36,37,38,39 width_16 busLabel_16" style="fill: white; stroke: none"/><text x="159.5" y="359" class="net_24,25,26,27,28,29,30,31,32,33,34,35,36,37,38,39 width_16 busLabel_16">/16/</text><rect x="160.5" y="351" width="22" height="9" class="net_24,25,26,27,28,29,30,31,32,33,34,35,36,37,38,39 width_16 busLabel_16" style="fill: white; stroke: none"/><text x="159.5" y="359" class="net_24,25,26,27,28,29,30,31,32,33,34,35,36,37,38,39 width_16 busLabel_16">/16/</text><rect x="365" y="87" width="22" height="9" class="net_41,24,25,26,27,28,29,30,31,32,33,34,35,36,37,38 width_16 busLabel_16" style="fill: white; stroke: none"/><text x="364" y="95" class="net_41,24,25,26,27,28,29,30,31,32,33,34,35,36,37,38 width_16 busLabel_16">/16/</text><rect x="522" y="77" width="22" height="9" class="net_42,43,44,45,46,47,48,49,50,51,52,53,54,55,56,57 width_16 busLabel_16" style="fill: white; stroke: none"/><text x="521" y="85" class="net_42,43,44,45,46,47,48,49,50,51,52,53,54,55,56,57 width_16 busLabel_16">/16/</text><rect x="522" y="178" width="22" height="9" class="net_6,7,8,9,10,11,12,13,14,15,16,17,18,19,20,21 width_16 busLabel_16" style="fill: white; stroke: none"/><text x="521" y="186" class="net_6,7,8,9,10,11,12,13,14,15,16,17,18,19,20,21 width_16 busLabel_16">/16/</text><rect x="665" y="87" width="22" height="9" class="net_58,59,60,61,62,63,64,65,66,67,68,69,70,71,72,73 width_16 busLabel_16" style="fill: white; stroke: none"/><text x="664" y="95" class="net_58,59,60,61,62,63,64,65,66,67,68,69,70,71,72,73 width_16 busLabel_16">/16/</text><rect x="665" y="269" width="22" height="9" class="net_91,92,93,94,95,96,97,98,99,100,101,102,103,104,105,106 width_16 busLabel_16" style="fill: white; stroke: none"/><text x="664" y="277" class="net_91,92,93,94,95,96,97,98,99,100,101,102,103,104,105,106 width_16 busLabel_16">/16/</text><rect x="522" y="290" width="22" height="9" class="net_74,75,76,77,78,79,80,81,82,83,84,85,86,87,88,89 width_16 busLabel_16" style="fill: white; stroke: none"/><text x="521" y="298" class="net_74,75,76,77,78,79,80,81,82,83,84,85,86,87,88,89 width_16 busLabel_16">/16/</text><rect x="160.5" y="104.5" width="22" height="9" class="net_24,25,26,27,28,29,30,31,32,33,34,35,36,37,38 width_15 busLabel_15" style="fill: white; stroke: none"/><text x="159.5" y="112.5" class="net_24,25,26,27,28,29,30,31,32,33,34,35,36,37,38 width_15 busLabel_15">/15/</text></svg>