<svg xmlns="http://www.w3.org/2000/svg" xmlns:xlink="http://www.w3.org/1999/xlink" xmlns:s="https://github.com/nturley/netlistsvg" width="724" height="563"><style>svg {
  stroke:#000;
  fill:none;
}
text {
  fill:#000;
  stroke:none;
  font-size:10px;
  font-weight: bold;
  font-family: "Courier New", monospace;
}
line {
    stroke-linecap: round;
}
.nodelabel {
  text-anchor: middle;
}
.inputPortLabel {
  text-anchor: end;
}
.splitjoinBody {
  fill:#000;
}</style><g s:type="add" transform="translate(356.6666666666667,277.5)" s:width="25" s:height="25" id="cell_\10"><s:alias val="$add"/><circle r="12.5" cx="12.5" cy="12.5" fill="#ffc9c3" class="cell_\10"/><line x1="7.5" x2="17.5" y1="12.5" y2="12.5" class="cell_\10"/><line x1="12.5" x2="12.5" y1="7.5" y2="17.5" class="cell_\10"/><g s:x="2" s:y="5" s:pid="A"/><g s:x="2" s:y="20" s:pid="B"/><g s:x="26" s:y="12.5" s:pid="Y"/></g><g s:type="not" transform="translate(355,404)" s:width="30" s:height="20" id="cell_\11"><s:alias val="$_NOT_"/><s:alias val="$not"/><s:alias val="$logic_not"/><path d="M0,0 L0,20 L20,10 Z" fill="#eebaff" class="cell_\11"/><circle cx="24" cy="10" r="3" fill="#eebaff" class="cell_\11"/><g s:x="-1" s:y="10" s:pid="A"/><g s:x="27" s:y="10" s:pid="Y"/></g><g s:type="and" transform="translate(421.3333333333333,434)" s:width="30" s:height="25" id="cell_\12"><s:alias val="$and"/><s:alias val="$logic_and"/><s:alias val="$_AND_"/><path d="M0,0 L0,25 L15,25 A15 12.5 0 0 0 15,0 Z" fill="#eebaff" class="cell_\12"/><g s:x="0" s:y="5" s:pid="A"/><g s:x="0" s:y="20" s:pid="B"/><g s:x="30" s:y="12.5" s:pid="Y"/></g><g s:type="mux" transform="translate(491,481)" s:width="20" s:height="40" id="cell_\16"><s:alias val="$pmux"/><s:alias val="$mux"/><s:alias val="$_MUX_"/><path d="M0,0 L20,10 L20,30 L0,40 Z" fill="#ffffff" class="cell_\16"/><text x="5" y="32" class="nodelabel cell_\16" s:attribute="">1</text><text x="5" y="13" class="nodelabel cell_\16" s:attribute="">0</text><g s:x="0" s:y="10" s:pid="A"/><g s:x="0" s:y="30" s:pid="B"/><g s:x="10" s:y="35" s:pid="S"/><g s:x="20" s:y="20" s:pid="Y"/></g><g s:type="mux-bus" transform="translate(489.6666666666667,280)" s:width="24" s:height="40" id="cell_\18"><s:alias val="$pmux-bus"/><s:alias val="$mux-bus"/><s:alias val="$_MUX_-bus"/><path d="M8,2 L8,0 L24,8 L24,32 L8,40 L8,38" fill="#ffffff" class="cell_\18"/><path d="M4,2 L4,0 L22,9 L22,31 L4,40 L4,38" fill="#ffffff" class="cell_\18"/><path d="M0,0 L20,10 L20,30 L0,40 Z" fill="#ffffff" class="cell_\18"/><text x="5" y="32" class="nodelabel cell_\18" s:attribute="">1</text><text x="5" y="13" class="nodelabel cell_\18" s:attribute="">0</text><g s:x="-1" s:y="10" s:pid="A"/><g s:x="-1" s:y="30" s:pid="B"/><g s:x="12" s:y="38" s:pid="S"/><g s:x="24.5" s:y="20" s:pid="Y"/></g><g s:type="mux-bus" transform="translate(489.6666666666667,124)" s:width="24" s:height="40" id="cell_\19"><s:alias val="$pmux-bus"/><s:alias val="$mux-bus"/><s:alias val="$_MUX_-bus"/><path d="M8,2 L8,0 L24,8 L24,32 L8,40 L8,38" fill="#ffffff" class="cell_\19"/><path d="M4,2 L4,0 L22,9 L22,31 L4,40 L4,38" fill="#ffffff" class="cell_\19"/><path d="M0,0 L20,10 L20,30 L0,40 Z" fill="#ffffff" class="cell_\19"/><text x="5" y="32" class="nodelabel cell_\19" s:attribute="">1</text><text x="5" y="13" class="nodelabel cell_\19" s:attribute="">0</text><g s:x="-1" s:y="10" s:pid="A"/><g s:x="-1" s:y="30" s:pid="B"/><g s:x="12" s:y="38" s:pid="S"/><g s:x="24.5" s:y="20" s:pid="Y"/></g><g s:type="mux-bus" transform="translate(621,329)" s:width="24" s:height="40" id="cell_\21"><s:alias val="$pmux-bus"/><s:alias val="$mux-bus"/><s:alias val="$_MUX_-bus"/><path d="M8,2 L8,0 L24,8 L24,32 L8,40 L8,38" fill="#ffffff" class="cell_\21"/><path d="M4,2 L4,0 L22,9 L22,31 L4,40 L4,38" fill="#ffffff" class="cell_\21"/><path d="M0,0 L20,10 L20,30 L0,40 Z" fill="#ffffff" class="cell_\21"/><text x="5" y="32" class="nodelabel cell_\21" s:attribute="">1</text><text x="5" y="13" class="nodelabel cell_\21" s:attribute="">0</text><g s:x="-1" s:y="10" s:pid="A"/><g s:x="-1" s:y="30" s:pid="B"/><g s:x="12" s:y="38" s:pid="S"/><g s:x="24.5" s:y="20" s:pid="Y"/></g><g s:type="mux-bus" transform="translate(621,144)" s:width="24" s:height="40" id="cell_\23"><s:alias val="$pmux-bus"/><s:alias val="$mux-bus"/><s:alias val="$_MUX_-bus"/><path d="M8,2 L8,0 L24,8 L24,32 L8,40 L8,38" fill="#ffffff" class="cell_\23"/><path d="M4,2 L4,0 L22,9 L22,31 L4,40 L4,38" fill="#ffffff" class="cell_\23"/><path d="M0,0 L20,10 L20,30 L0,40 Z" fill="#ffffff" class="cell_\23"/><text x="5" y="32" class="nodelabel cell_\23" s:attribute="">1</text><text x="5" y="13" class="nodelabel cell_\23" s:attribute="">0</text><g s:x="-1" s:y="10" s:pid="A"/><g s:x="-1" s:y="30" s:pid="B"/><g s:x="12" s:y="38" s:pid="S"/><g s:x="24.5" s:y="20" s:pid="Y"/></g><g s:type="mux" transform="translate(86.33333333333333,323)" s:width="20" s:height="40" id="cell_\25"><s:alias val="$pmux"/><s:alias val="$mux"/><s:alias val="$_MUX_"/><path d="M0,0 L20,10 L20,30 L0,40 Z" fill="#ffffff" class="cell_\25"/><text x="5" y="32" class="nodelabel cell_\25" s:attribute="">1</text><text x="5" y="13" class="nodelabel cell_\25" s:attribute="">0</text><g s:x="0" s:y="10" s:pid="A"/><g s:x="0" s:y="30" s:pid="B"/><g s:x="10" s:y="35" s:pid="S"/><g s:x="20" s:y="20" s:pid="Y"/></g><g s:type="mux" transform="translate(224.33333333333334,373)" s:width="20" s:height="40" id="cell_\27"><s:alias val="$pmux"/><s:alias val="$mux"/><s:alias val="$_MUX_"/><path d="M0,0 L20,10 L20,30 L0,40 Z" fill="#ffffff" class="cell_\27"/><text x="5" y="32" class="nodelabel cell_\27" s:attribute="">1</text><text x="5" y="13" class="nodelabel cell_\27" s:attribute="">0</text><g s:x="0" s:y="10" s:pid="A"/><g s:x="0" s:y="30" s:pid="B"/><g s:x="10" s:y="35" s:pid="S"/><g s:x="20" s:y="20" s:pid="Y"/></g><g s:type="dff" transform="translate(221,144)" s:width="30" s:height="40" id="cell_\34"><s:alias val="$dff"/><s:alias val="$_DFF_"/><s:alias val="$_DFF_P_"/><s:alias val="dff-bus"/><s:alias val="$dff-bus"/><s:alias val="$_DFF_-bus"/><s:alias val="$_DFF_P_-bus"/><rect width="30" height="40" x="0" y="0" fill="#ffef8b" class="cell_\34"/><path d="M0,35 L5,30 L0,25" class="cell_\34"/><g s:x="31" s:y="10" s:pid="Q"/><g s:x="-1" s:y="30" s:pid="CLK"/><g s:x="-1" s:y="30" s:pid="C"/><g s:x="-1" s:y="10" s:pid="D"/></g><g s:type="dff" transform="translate(355,62)" s:width="30" s:height="40" id="cell_\35"><s:alias val="$dff"/><s:alias val="$_DFF_"/><s:alias val="$_DFF_P_"/><s:alias val="dff-bus"/><s:alias val="$dff-bus"/><s:alias val="$_DFF_-bus"/><s:alias val="$_DFF_P_-bus"/><rect width="30" height="40" x="0" y="0" fill="#ffef8b" class="cell_\35"/><path d="M0,35 L5,30 L0,25" class="cell_\35"/><g s:x="31" s:y="10" s:pid="Q"/><g s:x="-1" s:y="30" s:pid="CLK"/><g s:x="-1" s:y="30" s:pid="C"/><g s:x="-1" s:y="10" s:pid="D"/></g><g s:type="dff" transform="translate(154,373)" s:width="30" s:height="40" id="cell_\36"><s:alias val="$dff"/><s:alias val="$_DFF_"/><s:alias val="$_DFF_P_"/><s:alias val="dff-bus"/><s:alias val="$dff-bus"/><s:alias val="$_DFF_-bus"/><s:alias val="$_DFF_P_-bus"/><rect width="30" height="40" x="0" y="0" fill="#ffef8b" class="cell_\36"/><path d="M0,35 L5,30 L0,25" class="cell_\36"/><g s:x="31" s:y="10" s:pid="Q"/><g s:x="-1" s:y="30" s:pid="CLK"/><g s:x="-1" s:y="30" s:pid="C"/><g s:x="-1" s:y="10" s:pid="D"/></g><g s:type="dff" transform="translate(288,404)" s:width="30" s:height="40" id="cell_\37"><s:alias val="$dff"/><s:alias val="$_DFF_"/><s:alias val="$_DFF_P_"/><s:alias val="dff-bus"/><s:alias val="$dff-bus"/><s:alias val="$_DFF_-bus"/><s:alias val="$_DFF_P_-bus"/><rect width="30" height="40" x="0" y="0" fill="#ffef8b" class="cell_\37"/><path d="M0,35 L5,30 L0,25" class="cell_\37"/><g s:x="31" s:y="10" s:pid="Q"/><g s:x="-1" s:y="30" s:pid="CLK"/><g s:x="-1" s:y="30" s:pid="C"/><g s:x="-1" s:y="10" s:pid="D"/></g><g s:type="dff" transform="translate(554,511)" s:width="30" s:height="40" id="cell_\38"><s:alias val="$dff"/><s:alias val="$_DFF_"/><s:alias val="$_DFF_P_"/><s:alias val="dff-bus"/><s:alias val="$dff-bus"/><s:alias val="$_DFF_-bus"/><s:alias val="$_DFF_P_-bus"/><rect width="30" height="40" x="0" y="0" fill="#ffef8b" class="cell_\38"/><path d="M0,35 L5,30 L0,25" class="cell_\38"/><g s:x="31" s:y="10" s:pid="Q"/><g s:x="-1" s:y="30" s:pid="CLK"/><g s:x="-1" s:y="30" s:pid="C"/><g s:x="-1" s:y="10" s:pid="D"/></g><g s:type="inputExt" transform="translate(83,393)" s:width="30" s:height="20" id="cell_clk"><text x="15" y="-4" class="nodelabel cell_clk" s:attribute="ref">clk</text><s:alias val="$_inputExt_"/><path d="M0,0 L0,20 L15,20 L30,10 L15,0 Z" fill="#8bcaff" class="cell_clk"/><g s:x="30" s:y="10" s:pid="Y"/></g><g s:type="inputExt" transform="translate(12,459)" s:width="30" s:height="20" id="cell_reset"><text x="15" y="-4" class="nodelabel cell_reset" s:attribute="ref">reset</text><s:alias val="$_inputExt_"/><path d="M0,0 L0,20 L15,20 L30,10 L15,0 Z" fill="#8bcaff" class="cell_reset"/><g s:x="30" s:y="10" s:pid="Y"/></g><g s:type="inputExt" transform="translate(12,278)" s:width="30" s:height="20" id="cell_pulse"><text x="15" y="-4" class="nodelabel cell_pulse" s:attribute="ref">pulse</text><s:alias val="$_inputExt_"/><path d="M0,0 L0,20 L15,20 L30,10 L15,0 Z" fill="#8bcaff" class="cell_pulse"/><g s:x="30" s:y="10" s:pid="Y"/></g><g s:type="outputExt" transform="translate(620,511)" s:width="30" s:height="20" id="cell_output_valid"><text x="15" y="-4" class="nodelabel cell_output_valid" s:attribute="ref">output_valid</text><s:alias val="$_outputExt_"/><path d="M30,0 L30,20 L15,20 L0,10 L15,0 Z" fill="#169300" class="cell_output_valid"/><g s:x="0" s:y="10" s:pid="A"/></g><g s:type="outputExt" transform="translate(621,22)" s:width="30" s:height="20" id="cell_output"><text x="15" y="-4" class="nodelabel cell_output" s:attribute="ref">output</text><s:alias val="$_outputExt_"/><path d="M30,0 L30,20 L15,20 L0,10 L15,0 Z" fill="#169300" class="cell_output"/><g s:x="0" s:y="10" s:pid="A"/></g><g s:type="constant" transform="translate(221,287.5)" s:width="30" s:height="20" id="cell_0000000000000000000000001"><text x="15" y="-4" class="nodelabel cell_0000000000000000000000001" s:attribute="ref">0x1</text><s:alias val="$_constant_"/><rect width="30" height="20" fill="#745bff" class="cell_0000000000000000000000001"/><g s:x="31" s:y="10" s:pid="Y"/></g><g s:type="constant" transform="translate(12,343)" s:width="30" s:height="20" id="cell_0"><text x="15" y="-4" class="nodelabel cell_0" s:attribute="ref">0</text><s:alias val="$_constant_"/><rect width="30" height="20" fill="#745bff" class="cell_0"/><g s:x="31" s:y="10" s:pid="Y"/></g><g s:type="constant" transform="translate(421,501)" s:width="30" s:height="20" id="cell_1"><text x="15" y="-4" class="nodelabel cell_1" s:attribute="ref">1</text><s:alias val="$_constant_"/><rect width="30" height="20" fill="#745bff" class="cell_1"/><g s:x="31" s:y="10" s:pid="Y"/></g><g s:type="constant" transform="translate(354,349)" s:width="30" s:height="20" id="cell_0000000000000000000000000"><text x="15" y="-4" class="nodelabel cell_0000000000000000000000000" s:attribute="ref">0x0</text><s:alias val="$_constant_"/><rect width="30" height="20" fill="#745bff" class="cell_0000000000000000000000000"/><g s:x="31" s:y="10" s:pid="Y"/></g><g s:type="constant" transform="translate(487,225)" s:width="30" s:height="20" id="cell_0000000000000000"><text x="15" y="-4" class="nodelabel cell_0000000000000000" s:attribute="ref">0x0</text><s:alias val="$_constant_"/><rect width="30" height="20" fill="#745bff" class="cell_0000000000000000"/><g s:x="31" s:y="10" s:pid="Y"/></g><g s:type="split" transform="translate(355,143.5)" s:width="5" s:height="40" id="cell_$split$,22,23,24,25,26,27,28,29,30,31,32,33,34,35,36,37,38,39,40,41,42,43,44,45,46,"><rect width="5" height="20" class="splitjoinBody" s:generic="body"/><s:alias val="$_split_"/><g s:x="-1" s:y="20" s:pid="in"/><g transform="translate(5,10)" s:x="5" s:y="10" s:pid="out0"><text x="5" y="-4">1:16</text></g></g><line x1="252" x2="262" y1="154" y2="154" class="net_22,23,24,25,26,27,28,29,30,31,32,33,34,35,36,37,38,39,40,41,42,43,44,45,46 width_25" style="stroke-width: 2"/><line x1="262" x2="262" y1="154" y2="277.5" class="net_22,23,24,25,26,27,28,29,30,31,32,33,34,35,36,37,38,39,40,41,42,43,44,45,46 width_25" style="stroke-width: 2"/><line x1="262" x2="329" y1="277.5" y2="277.5" class="net_22,23,24,25,26,27,28,29,30,31,32,33,34,35,36,37,38,39,40,41,42,43,44,45,46 width_25" style="stroke-width: 2"/><line x1="329" x2="329" y1="277.5" y2="282.5" class="net_22,23,24,25,26,27,28,29,30,31,32,33,34,35,36,37,38,39,40,41,42,43,44,45,46 width_25" style="stroke-width: 2"/><circle cx="262" cy="154" r="3" style="fill:#000" class="net_22,23,24,25,26,27,28,29,30,31,32,33,34,35,36,37,38,39,40,41,42,43,44,45,46 width_25"/><line x1="329" x2="358.6666666666667" y1="282.5" y2="282.5" class="net_22,23,24,25,26,27,28,29,30,31,32,33,34,35,36,37,38,39,40,41,42,43,44,45,46 width_25" style="stroke-width: 2"/><line x1="252" x2="354" y1="154" y2="154" class="net_22,23,24,25,26,27,28,29,30,31,32,33,34,35,36,37,38,39,40,41,42,43,44,45,46 width_25" style="stroke-width: 2"/><line x1="252" x2="358.6666666666667" y1="297.5" y2="297.5" class="net_161,162,163,164,165,166,167,168,169,170,171,172,173,174,175,176,177,178,179,180,181,182,183,184,185 width_25" style="stroke-width: 2"/><line x1="319" x2="354" y1="414" y2="414" class="net_72 width_1" style="stroke-width: 1"/><line x1="382" x2="396" y1="414" y2="414" class="net_73 width_1" style="stroke-width: 1"/><line x1="396" x2="396" y1="414" y2="439" class="net_73 width_1" style="stroke-width: 1"/><line x1="396" x2="421.3333333333333" y1="439" y2="439" class="net_73 width_1" style="stroke-width: 1"/><line x1="185" x2="195" y1="383" y2="383" class="net_74 width_1" style="stroke-width: 1"/><line x1="195" x2="195" y1="383" y2="454" class="net_74 width_1" style="stroke-width: 1"/><circle cx="195" cy="383" r="2" style="fill:#000" class="net_74 width_1"/><line x1="195" x2="421.3333333333333" y1="454" y2="454" class="net_74 width_1" style="stroke-width: 1"/><line x1="185" x2="224.33333333333334" y1="383" y2="383" class="net_74 width_1" style="stroke-width: 1"/><line x1="43" x2="63" y1="353" y2="353" class="net_186 width_1" style="stroke-width: 1"/><line x1="63" x2="63" y1="353" y2="480" class="net_186 width_1" style="stroke-width: 1"/><line x1="63" x2="462" y1="480" y2="480" class="net_186 width_1" style="stroke-width: 1"/><line x1="462" x2="462" y1="480" y2="491" class="net_186 width_1" style="stroke-width: 1"/><circle cx="63" cy="353" r="2" style="fill:#000" class="net_186 width_1"/><line x1="462" x2="491" y1="491" y2="491" class="net_186 width_1" style="stroke-width: 1"/><line x1="43" x2="86.33333333333333" y1="353" y2="353" class="net_186 width_1" style="stroke-width: 1"/><line x1="43" x2="63" y1="353" y2="353" class="net_186 width_1" style="stroke-width: 1"/><line x1="63" x2="63" y1="353" y2="312" class="net_186 width_1" style="stroke-width: 1"/><line x1="63" x2="205" y1="312" y2="312" class="net_186 width_1" style="stroke-width: 1"/><line x1="205" x2="205" y1="312" y2="403" class="net_186 width_1" style="stroke-width: 1"/><line x1="205" x2="224.33333333333334" y1="403" y2="403" class="net_186 width_1" style="stroke-width: 1"/><line x1="452" x2="491" y1="511" y2="511" class="net_187 width_1" style="stroke-width: 1"/><line x1="451.3333333333333" x2="472" y1="446.5" y2="446.5" class="net_75 width_1" style="stroke-width: 1"/><line x1="472" x2="472" y1="446.5" y2="531" class="net_75 width_1" style="stroke-width: 1"/><line x1="472" x2="501" y1="531" y2="531" class="net_75 width_1" style="stroke-width: 1"/><circle cx="472" cy="446.5" r="2" style="fill:#000" class="net_75 width_1"/><line x1="501" x2="501" y1="531" y2="516" class="net_75 width_1" style="stroke-width: 1"/><line x1="451.3333333333333" x2="501.6666666666667" y1="446.5" y2="446.5" class="net_75 width_1" style="stroke-width: 1"/><line x1="501.6666666666667" x2="501.6666666666667" y1="446.5" y2="318" class="net_75 width_1" style="stroke-width: 1"/><line x1="451.3333333333333" x2="472" y1="446.5" y2="446.5" class="net_75 width_1" style="stroke-width: 1"/><line x1="472" x2="472" y1="446.5" y2="205" class="net_75 width_1" style="stroke-width: 1"/><line x1="472" x2="501.6666666666667" y1="205" y2="205" class="net_75 width_1" style="stroke-width: 1"/><line x1="501.6666666666667" x2="501.6666666666667" y1="205" y2="162" class="net_75 width_1" style="stroke-width: 1"/><line x1="382.6666666666667" x2="488.6666666666667" y1="290" y2="290" class="net_47,48,49,50,51,52,53,54,55,56,57,58,59,60,61,62,63,64,65,66,67,68,69,70,71 width_25" style="stroke-width: 2"/><line x1="385" x2="396" y1="359" y2="359" class="net_188,189,190,191,192,193,194,195,196,197,198,199,200,201,202,203,204,205,206,207,208,209,210,211,212 width_25" style="stroke-width: 2"/><line x1="396" x2="396" y1="359" y2="310" class="net_188,189,190,191,192,193,194,195,196,197,198,199,200,201,202,203,204,205,206,207,208,209,210,211,212 width_25" style="stroke-width: 2"/><circle cx="396" cy="359" r="3" style="fill:#000" class="net_188,189,190,191,192,193,194,195,196,197,198,199,200,201,202,203,204,205,206,207,208,209,210,211,212 width_25"/><line x1="396" x2="488.6666666666667" y1="310" y2="310" class="net_188,189,190,191,192,193,194,195,196,197,198,199,200,201,202,203,204,205,206,207,208,209,210,211,212 width_25" style="stroke-width: 2"/><line x1="385" x2="620" y1="359" y2="359" class="net_188,189,190,191,192,193,194,195,196,197,198,199,200,201,202,203,204,205,206,207,208,209,210,211,212 width_25" style="stroke-width: 2"/><line x1="386" x2="396" y1="72" y2="72" class="net_6,7,8,9,10,11,12,13,14,15,16,17,18,19,20,21 width_16" style="stroke-width: 2"/><line x1="396" x2="396" y1="72" y2="134" class="net_6,7,8,9,10,11,12,13,14,15,16,17,18,19,20,21 width_16" style="stroke-width: 2"/><circle cx="396" cy="72" r="3" style="fill:#000" class="net_6,7,8,9,10,11,12,13,14,15,16,17,18,19,20,21 width_16"/><line x1="396" x2="488.6666666666667" y1="134" y2="134" class="net_6,7,8,9,10,11,12,13,14,15,16,17,18,19,20,21 width_16" style="stroke-width: 2"/><line x1="386" x2="396" y1="72" y2="72" class="net_6,7,8,9,10,11,12,13,14,15,16,17,18,19,20,21 width_16" style="stroke-width: 2"/><line x1="396" x2="396" y1="72" y2="32" class="net_6,7,8,9,10,11,12,13,14,15,16,17,18,19,20,21 width_16" style="stroke-width: 2"/><line x1="396" x2="621" y1="32" y2="32" class="net_6,7,8,9,10,11,12,13,14,15,16,17,18,19,20,21 width_16" style="stroke-width: 2"/><line x1="361" x2="488.6666666666667" y1="154" y2="154" class="net_23,24,25,26,27,28,29,30,31,32,33,34,35,36,37,38 width_16" style="stroke-width: 2"/><line x1="514.1666666666667" x2="595" y1="300" y2="300" class="net_77,78,79,80,81,82,83,84,85,86,87,88,89,90,91,92,93,94,95,96,97,98,99,100,101 width_25" style="stroke-width: 2"/><line x1="595" x2="595" y1="300" y2="339" class="net_77,78,79,80,81,82,83,84,85,86,87,88,89,90,91,92,93,94,95,96,97,98,99,100,101 width_25" style="stroke-width: 2"/><line x1="595" x2="620" y1="339" y2="339" class="net_77,78,79,80,81,82,83,84,85,86,87,88,89,90,91,92,93,94,95,96,97,98,99,100,101 width_25" style="stroke-width: 2"/><line x1="42" x2="633" y1="469" y2="469" class="net_3 width_1" style="stroke-width: 1"/><line x1="633" x2="633" y1="469" y2="367" class="net_3 width_1" style="stroke-width: 1"/><line x1="42" x2="53" y1="469" y2="469" class="net_3 width_1" style="stroke-width: 1"/><line x1="53" x2="53" y1="469" y2="194" class="net_3 width_1" style="stroke-width: 1"/><line x1="53" x2="633" y1="194" y2="194" class="net_3 width_1" style="stroke-width: 1"/><circle cx="53" cy="469" r="2" style="fill:#000" class="net_3 width_1"/><line x1="633" x2="633" y1="194" y2="182" class="net_3 width_1" style="stroke-width: 1"/><line x1="42" x2="53" y1="469" y2="469" class="net_3 width_1" style="stroke-width: 1"/><line x1="53" x2="53" y1="469" y2="373" class="net_3 width_1" style="stroke-width: 1"/><line x1="53" x2="96.33333333333333" y1="373" y2="373" class="net_3 width_1" style="stroke-width: 1"/><circle cx="53" cy="373" r="2" style="fill:#000" class="net_3 width_1"/><line x1="96.33333333333333" x2="96.33333333333333" y1="373" y2="358" class="net_3 width_1" style="stroke-width: 1"/><line x1="42" x2="123" y1="469" y2="469" class="net_3 width_1" style="stroke-width: 1"/><line x1="123" x2="123" y1="469" y2="423" class="net_3 width_1" style="stroke-width: 1"/><line x1="123" x2="234.33333333333334" y1="423" y2="423" class="net_3 width_1" style="stroke-width: 1"/><circle cx="123" cy="469" r="2" style="fill:#000" class="net_3 width_1"/><line x1="234.33333333333334" x2="234.33333333333334" y1="423" y2="408" class="net_3 width_1" style="stroke-width: 1"/><line x1="514.1666666666667" x2="595" y1="144" y2="144" class="net_102,103,104,105,106,107,108,109,110,111,112,113,114,115,116,117 width_16" style="stroke-width: 2"/><line x1="595" x2="595" y1="144" y2="154" class="net_102,103,104,105,106,107,108,109,110,111,112,113,114,115,116,117 width_16" style="stroke-width: 2"/><line x1="595" x2="620" y1="154" y2="154" class="net_102,103,104,105,106,107,108,109,110,111,112,113,114,115,116,117 width_16" style="stroke-width: 2"/><line x1="518" x2="528" y1="235" y2="235" class="net_238,239,240,241,242,243,244,245,246,247,248,249,250,251,252,253 width_16" style="stroke-width: 2"/><line x1="528" x2="528" y1="235" y2="174" class="net_238,239,240,241,242,243,244,245,246,247,248,249,250,251,252,253 width_16" style="stroke-width: 2"/><line x1="528" x2="620" y1="174" y2="174" class="net_238,239,240,241,242,243,244,245,246,247,248,249,250,251,252,253 width_16" style="stroke-width: 2"/><line x1="42" x2="73" y1="288" y2="288" class="net_4 width_1" style="stroke-width: 1"/><line x1="73" x2="73" y1="288" y2="333" class="net_4 width_1" style="stroke-width: 1"/><line x1="73" x2="86.33333333333333" y1="333" y2="333" class="net_4 width_1" style="stroke-width: 1"/><line x1="113" x2="133" y1="403" y2="403" class="net_2 width_1" style="stroke-width: 1"/><line x1="133" x2="133" y1="403" y2="174" class="net_2 width_1" style="stroke-width: 1"/><circle cx="133" cy="403" r="2" style="fill:#000" class="net_2 width_1"/><line x1="133" x2="220" y1="174" y2="174" class="net_2 width_1" style="stroke-width: 1"/><line x1="113" x2="133" y1="403" y2="403" class="net_2 width_1" style="stroke-width: 1"/><line x1="133" x2="133" y1="403" y2="174" class="net_2 width_1" style="stroke-width: 1"/><line x1="133" x2="195" y1="174" y2="174" class="net_2 width_1" style="stroke-width: 1"/><line x1="195" x2="195" y1="174" y2="92" class="net_2 width_1" style="stroke-width: 1"/><circle cx="195" cy="174" r="2" style="fill:#000" class="net_2 width_1"/><line x1="195" x2="354" y1="92" y2="92" class="net_2 width_1" style="stroke-width: 1"/><line x1="113" x2="153" y1="403" y2="403" class="net_2 width_1" style="stroke-width: 1"/><line x1="113" x2="133" y1="403" y2="403" class="net_2 width_1" style="stroke-width: 1"/><line x1="133" x2="133" y1="403" y2="434" class="net_2 width_1" style="stroke-width: 1"/><circle cx="133" cy="434" r="2" style="fill:#000" class="net_2 width_1"/><line x1="133" x2="287" y1="434" y2="434" class="net_2 width_1" style="stroke-width: 1"/><line x1="113" x2="133" y1="403" y2="403" class="net_2 width_1" style="stroke-width: 1"/><line x1="133" x2="133" y1="403" y2="541" class="net_2 width_1" style="stroke-width: 1"/><line x1="133" x2="553" y1="541" y2="541" class="net_2 width_1" style="stroke-width: 1"/><line x1="645.5" x2="702" y1="349" y2="349" class="net_118,119,120,121,122,123,124,125,126,127,128,129,130,131,132,133,134,135,136,137,138,139,140,141,142 width_25" style="stroke-width: 2"/><line x1="702" x2="702" y1="349" y2="113" class="net_118,119,120,121,122,123,124,125,126,127,128,129,130,131,132,133,134,135,136,137,138,139,140,141,142 width_25" style="stroke-width: 2"/><line x1="702" x2="205" y1="113" y2="113" class="net_118,119,120,121,122,123,124,125,126,127,128,129,130,131,132,133,134,135,136,137,138,139,140,141,142 width_25" style="stroke-width: 2"/><line x1="205" x2="205" y1="113" y2="154" class="net_118,119,120,121,122,123,124,125,126,127,128,129,130,131,132,133,134,135,136,137,138,139,140,141,142 width_25" style="stroke-width: 2"/><line x1="205" x2="220" y1="154" y2="154" class="net_118,119,120,121,122,123,124,125,126,127,128,129,130,131,132,133,134,135,136,137,138,139,140,141,142 width_25" style="stroke-width: 2"/><line x1="645.5" x2="712" y1="164" y2="164" class="net_143,144,145,146,147,148,149,150,151,152,153,154,155,156,157,158 width_16" style="stroke-width: 2"/><line x1="712" x2="712" y1="164" y2="52" class="net_143,144,145,146,147,148,149,150,151,152,153,154,155,156,157,158 width_16" style="stroke-width: 2"/><line x1="712" x2="329" y1="52" y2="52" class="net_143,144,145,146,147,148,149,150,151,152,153,154,155,156,157,158 width_16" style="stroke-width: 2"/><line x1="329" x2="329" y1="52" y2="72" class="net_143,144,145,146,147,148,149,150,151,152,153,154,155,156,157,158 width_16" style="stroke-width: 2"/><line x1="329" x2="354" y1="72" y2="72" class="net_143,144,145,146,147,148,149,150,151,152,153,154,155,156,157,158 width_16" style="stroke-width: 2"/><line x1="106.33333333333333" x2="143" y1="343" y2="343" class="net_159 width_1" style="stroke-width: 1"/><line x1="143" x2="143" y1="343" y2="383" class="net_159 width_1" style="stroke-width: 1"/><line x1="143" x2="153" y1="383" y2="383" class="net_159 width_1" style="stroke-width: 1"/><line x1="244.33333333333334" x2="262" y1="393" y2="393" class="net_160 width_1" style="stroke-width: 1"/><line x1="262" x2="262" y1="393" y2="414" class="net_160 width_1" style="stroke-width: 1"/><line x1="262" x2="287" y1="414" y2="414" class="net_160 width_1" style="stroke-width: 1"/><line x1="511" x2="528" y1="501" y2="501" class="net_76 width_1" style="stroke-width: 1"/><line x1="528" x2="528" y1="501" y2="521" class="net_76 width_1" style="stroke-width: 1"/><line x1="528" x2="553" y1="521" y2="521" class="net_76 width_1" style="stroke-width: 1"/><line x1="585" x2="620" y1="521" y2="521" class="net_5 width_1" style="stroke-width: 1"/><rect x="302" y="149" width="22" height="9" class="net_22,23,24,25,26,27,28,29,30,31,32,33,34,35,36,37,38,39,40,41,42,43,44,45,46 width_25 busLabel_25" style="fill: white; stroke: none"/><text x="301" y="157" class="net_22,23,24,25,26,27,28,29,30,31,32,33,34,35,36,37,38,39,40,41,42,43,44,45,46 width_25 busLabel_25">/25/</text><rect x="302" y="149" width="22" height="9" class="net_22,23,24,25,26,27,28,29,30,31,32,33,34,35,36,37,38,39,40,41,42,43,44,45,46 width_25 busLabel_25" style="fill: white; stroke: none"/><text x="301" y="157" class="net_22,23,24,25,26,27,28,29,30,31,32,33,34,35,36,37,38,39,40,41,42,43,44,45,46 width_25 busLabel_25">/25/</text><rect x="302" y="292.5" width="22" height="9" class="net_161,162,163,164,165,166,167,168,169,170,171,172,173,174,175,176,177,178,179,180,181,182,183,184,185 width_25 busLabel_25" style="fill: white; stroke: none"/><text x="301" y="300.5" class="net_161,162,163,164,165,166,167,168,169,170,171,172,173,174,175,176,177,178,179,180,181,182,183,184,185 width_25 busLabel_25">/25/</text><rect x="435.5" y="285" width="22" height="9" class="net_47,48,49,50,51,52,53,54,55,56,57,58,59,60,61,62,63,64,65,66,67,68,69,70,71 width_25 busLabel_25" style="fill: white; stroke: none"/><text x="434.5" y="293" class="net_47,48,49,50,51,52,53,54,55,56,57,58,59,60,61,62,63,64,65,66,67,68,69,70,71 width_25 busLabel_25">/25/</text><rect x="501.5" y="354" width="22" height="9" class="net_188,189,190,191,192,193,194,195,196,197,198,199,200,201,202,203,204,205,206,207,208,209,210,211,212 width_25 busLabel_25" style="fill: white; stroke: none"/><text x="500.5" y="362" class="net_188,189,190,191,192,193,194,195,196,197,198,199,200,201,202,203,204,205,206,207,208,209,210,211,212 width_25 busLabel_25">/25/</text><rect x="501.5" y="354" width="22" height="9" class="net_188,189,190,191,192,193,194,195,196,197,198,199,200,201,202,203,204,205,206,207,208,209,210,211,212 width_25 busLabel_25" style="fill: white; stroke: none"/><text x="500.5" y="362" class="net_188,189,190,191,192,193,194,195,196,197,198,199,200,201,202,203,204,205,206,207,208,209,210,211,212 width_25 busLabel_25">/25/</text><rect x="501.5" y="27" width="22" height="9" class="net_6,7,8,9,10,11,12,13,14,15,16,17,18,19,20,21 width_16 busLabel_16" style="fill: white; stroke: none"/><text x="500.5" y="35" class="net_6,7,8,9,10,11,12,13,14,15,16,17,18,19,20,21 width_16 busLabel_16">/16/</text><rect x="501.5" y="27" width="22" height="9" class="net_6,7,8,9,10,11,12,13,14,15,16,17,18,19,20,21 width_16 busLabel_16" style="fill: white; stroke: none"/><text x="500.5" y="35" class="net_6,7,8,9,10,11,12,13,14,15,16,17,18,19,20,21 width_16 busLabel_16">/16/</text><rect x="435.5" y="149" width="22" height="9" class="net_23,24,25,26,27,28,29,30,31,32,33,34,35,36,37,38 width_16 busLabel_16" style="fill: white; stroke: none"/><text x="434.5" y="157" class="net_23,24,25,26,27,28,29,30,31,32,33,34,35,36,37,38 width_16 busLabel_16">/16/</text><rect x="568" y="295" width="22" height="9" class="net_77,78,79,80,81,82,83,84,85,86,87,88,89,90,91,92,93,94,95,96,97,98,99,100,101 width_25 busLabel_25" style="fill: white; stroke: none"/><text x="567" y="303" class="net_77,78,79,80,81,82,83,84,85,86,87,88,89,90,91,92,93,94,95,96,97,98,99,100,101 width_25 busLabel_25">/25/</text><rect x="568" y="139" width="22" height="9" class="net_102,103,104,105,106,107,108,109,110,111,112,113,114,115,116,117 width_16 busLabel_16" style="fill: white; stroke: none"/><text x="567" y="147" class="net_102,103,104,105,106,107,108,109,110,111,112,113,114,115,116,117 width_16 busLabel_16">/16/</text><rect x="568" y="169" width="22" height="9" class="net_238,239,240,241,242,243,244,245,246,247,248,249,250,251,252,253 width_16 busLabel_16" style="fill: white; stroke: none"/><text x="567" y="177" class="net_238,239,240,241,242,243,244,245,246,247,248,249,250,251,252,253 width_16 busLabel_16">/16/</text><rect x="435.5" y="108" width="22" height="9" class="net_118,119,120,121,122,123,124,125,126,127,128,129,130,131,132,133,134,135,136,137,138,139,140,141,142 width_25 busLabel_25" style="fill: white; stroke: none"/><text x="434.5" y="116" class="net_118,119,120,121,122,123,124,125,126,127,128,129,130,131,132,133,134,135,136,137,138,139,140,141,142 width_25 busLabel_25">/25/</text><rect x="501.5" y="47" width="22" height="9" class="net_143,144,145,146,147,148,149,150,151,152,153,154,155,156,157,158 width_16 busLabel_16" style="fill: white; stroke: none"/><text x="500.5" y="55" class="net_143,144,145,146,147,148,149,150,151,152,153,154,155,156,157,158 width_16 busLabel_16">/16/</text></svg>