<?xml version="1.0" encoding="UTF-8" standalone="no"?>
<!DOCTYPE svg PUBLIC "-//W3C//DTD SVG 1.1//EN"
 "http://www.w3.org/Graphics/SVG/1.1/DTD/svg11.dtd">
<!-- Generated by graphviz version 2.40.1 (20161225.0304)
 -->
<!-- Title: state transitions Pages: 1 -->
<svg width="567pt" height="891pt"
 viewBox="0.00 0.00 567.00 891.00" xmlns="http://www.w3.org/2000/svg" xmlns:xlink="http://www.w3.org/1999/xlink">
<g id="graph0" class="graph" transform="scale(1 1) rotate(0) translate(4 887)">
<title>state transitions</title>
<polygon fill="#ffffff" stroke="transparent" points="-4,4 -4,-887 563,-887 563,4 -4,4"/>
<g id="clust1" class="cluster state regular">
<title>cluster_state</title>
<path fill="none" stroke="#000000" stroke-width="2" d="M20,-8C20,-8 539,-8 539,-8 545,-8 551,-14 551,-20 551,-20 551,-863 551,-863 551,-869 545,-875 539,-875 539,-875 20,-875 20,-875 14,-875 8,-869 8,-863 8,-863 8,-20 8,-20 8,-14 14,-8 20,-8"/>
<text text-anchor="start" x="266.4944" y="-856.2" font-family="Helvetica,sans-Serif" font-size="12.00" fill="#000000">state</text>
</g>
<!-- state -->
<!-- IDLE -->
<g id="node2" class="node state regular">
<title>IDLE</title>
<polygon fill="#ffffff" fill-opacity="0.003922" stroke="transparent" stroke-width="2" points="349,-837 293,-837 293,-801 349,-801 349,-837"/>
<text text-anchor="start" x="307.6644" y="-815.2" font-family="Helvetica,sans-Serif" font-size="12.00" fill="#000000">IDLE</text>
<path fill="none" stroke="#000000" stroke-width="2" d="M305.3333,-802C305.3333,-802 336.6667,-802 336.6667,-802 342.3333,-802 348,-807.6667 348,-813.3333 348,-813.3333 348,-824.6667 348,-824.6667 348,-830.3333 342.3333,-836 336.6667,-836 336.6667,-836 305.3333,-836 305.3333,-836 299.6667,-836 294,-830.3333 294,-824.6667 294,-824.6667 294,-813.3333 294,-813.3333 294,-807.6667 299.6667,-802 305.3333,-802"/>
</g>
<!-- IDLE&#45;&gt;IDLE -->
<g id="edge3" class="edge transition">
<title>IDLE&#45;&gt;IDLE</title>
<path fill="none" stroke="#000000" d="M349.0183,-823.8247C360.888,-824.1883 371,-822.5801 371,-819 371,-816.5387 366.2205,-815.0094 359.3762,-814.4121"/>
<polygon fill="#000000" stroke="#000000" points="359.0957,-810.9049 349.0183,-814.1753 358.9356,-817.903 359.0957,-810.9049"/>
<text text-anchor="start" x="371" y="-828" font-family="Helvetica,sans-Serif" font-size="10.00" fill="#000000">rx_valid = &#39;1&#39; &#160;&#160;</text>
<text text-anchor="start" x="371" y="-816" font-family="Helvetica,sans-Serif" font-size="10.00" fill="#000000">not (rx_data = x&quot;AA&quot;) &#160;&#160;</text>
<text text-anchor="start" x="371" y="-804" font-family="Helvetica,sans-Serif" font-size="10.00" fill="#000000">not (rx_data = x&quot;55&quot;) &#160;&#160;</text>
</g>
<!-- WRITE_ADDRESS -->
<g id="node3" class="node state regular">
<title>WRITE_ADDRESS</title>
<polygon fill="#ffffff" fill-opacity="0.003922" stroke="transparent" stroke-width="2" points="212.5,-743 87.5,-743 87.5,-707 212.5,-707 212.5,-743"/>
<text text-anchor="start" x="98.8358" y="-721.2" font-family="Helvetica,sans-Serif" font-size="12.00" fill="#000000">WRITE_ADDRESS</text>
<path fill="none" stroke="#000000" stroke-width="2" d="M99.8333,-708C99.8333,-708 200.1667,-708 200.1667,-708 205.8333,-708 211.5,-713.6667 211.5,-719.3333 211.5,-719.3333 211.5,-730.6667 211.5,-730.6667 211.5,-736.3333 205.8333,-742 200.1667,-742 200.1667,-742 99.8333,-742 99.8333,-742 94.1667,-742 88.5,-736.3333 88.5,-730.6667 88.5,-730.6667 88.5,-719.3333 88.5,-719.3333 88.5,-713.6667 94.1667,-708 99.8333,-708"/>
</g>
<!-- IDLE&#45;&gt;WRITE_ADDRESS -->
<g id="edge1" class="edge transition">
<title>IDLE&#45;&gt;WRITE_ADDRESS</title>
<path fill="none" stroke="#000000" d="M292.8837,-814.4212C258.1104,-808.3163 201.4289,-796.7844 184.486,-784 173.8313,-775.9604 165.8812,-763.5929 160.3162,-752.2538"/>
<polygon fill="#000000" stroke="#000000" points="163.4884,-750.7739 156.1956,-743.0885 157.1039,-753.6443 163.4884,-750.7739"/>
<text text-anchor="start" x="184" y="-775" font-family="Helvetica,sans-Serif" font-size="10.00" fill="#000000">rx_data = x&quot;AA&quot; &#160;&#160;</text>
<text text-anchor="start" x="184" y="-763" font-family="Helvetica,sans-Serif" font-size="10.00" fill="#000000">rx_valid = &#39;1&#39; &#160;&#160;</text>
</g>
<!-- READ_ADDRESS -->
<g id="node8" class="node state regular">
<title>READ_ADDRESS</title>
<polygon fill="#ffffff" fill-opacity="0.003922" stroke="transparent" stroke-width="2" points="282,-699 162,-699 162,-663 282,-663 282,-699"/>
<text text-anchor="start" x="172.9992" y="-677.2" font-family="Helvetica,sans-Serif" font-size="12.00" fill="#000000">READ_ADDRESS</text>
<path fill="none" stroke="#000000" stroke-width="2" d="M174.3333,-664C174.3333,-664 269.6667,-664 269.6667,-664 275.3333,-664 281,-669.6667 281,-675.3333 281,-675.3333 281,-686.6667 281,-686.6667 281,-692.3333 275.3333,-698 269.6667,-698 269.6667,-698 174.3333,-698 174.3333,-698 168.6667,-698 163,-692.3333 163,-686.6667 163,-686.6667 163,-675.3333 163,-675.3333 163,-669.6667 168.6667,-664 174.3333,-664"/>
</g>
<!-- IDLE&#45;&gt;READ_ADDRESS -->
<g id="edge2" class="edge transition">
<title>IDLE&#45;&gt;READ_ADDRESS</title>
<path fill="none" stroke="#000000" d="M308.0575,-800.9589C290.9371,-777.0941 260.6342,-734.8538 240.9378,-707.3981"/>
<polygon fill="#000000" stroke="#000000" points="243.6187,-705.1307 234.9457,-699.0455 237.9309,-709.2111 243.6187,-705.1307"/>
<text text-anchor="start" x="294" y="-775" font-family="Helvetica,sans-Serif" font-size="10.00" fill="#000000">rx_data = x&quot;55&quot; &#160;&#160;</text>
<text text-anchor="start" x="294" y="-763" font-family="Helvetica,sans-Serif" font-size="10.00" fill="#000000">rx_valid = &#39;1&#39; &#160;&#160;</text>
</g>
<!-- WRITE_DATA0 -->
<g id="node4" class="node state regular">
<title>WRITE_DATA0</title>
<polygon fill="#ffffff" fill-opacity="0.003922" stroke="transparent" stroke-width="2" points="187.5,-626 82.5,-626 82.5,-590 187.5,-590 187.5,-626"/>
<text text-anchor="start" x="93.5006" y="-604.2" font-family="Helvetica,sans-Serif" font-size="12.00" fill="#000000">WRITE_DATA0</text>
<path fill="none" stroke="#000000" stroke-width="2" d="M94.8333,-591C94.8333,-591 175.1667,-591 175.1667,-591 180.8333,-591 186.5,-596.6667 186.5,-602.3333 186.5,-602.3333 186.5,-613.6667 186.5,-613.6667 186.5,-619.3333 180.8333,-625 175.1667,-625 175.1667,-625 94.8333,-625 94.8333,-625 89.1667,-625 83.5,-619.3333 83.5,-613.6667 83.5,-613.6667 83.5,-602.3333 83.5,-602.3333 83.5,-596.6667 89.1667,-591 94.8333,-591"/>
</g>
<!-- WRITE_ADDRESS&#45;&gt;WRITE_DATA0 -->
<g id="edge4" class="edge transition">
<title>WRITE_ADDRESS&#45;&gt;WRITE_DATA0</title>
<path fill="none" stroke="#000000" d="M147.6891,-706.9752C145.2738,-688.1356 141.4502,-658.3112 138.6309,-636.3213"/>
<polygon fill="#000000" stroke="#000000" points="142.0815,-635.7118 137.3382,-626.2381 135.1384,-636.602 142.0815,-635.7118"/>
<text text-anchor="start" x="141" y="-646" font-family="Helvetica,sans-Serif" font-size="10.00" fill="#000000">rx_valid = &#39;1&#39; &#160;&#160;</text>
</g>
<!-- WRITE_DATA1 -->
<g id="node5" class="node state regular">
<title>WRITE_DATA1</title>
<polygon fill="#ffffff" fill-opacity="0.003922" stroke="transparent" stroke-width="2" points="183.5,-544 78.5,-544 78.5,-508 183.5,-508 183.5,-544"/>
<text text-anchor="start" x="89.5006" y="-522.2" font-family="Helvetica,sans-Serif" font-size="12.00" fill="#000000">WRITE_DATA1</text>
<path fill="none" stroke="#000000" stroke-width="2" d="M90.8333,-509C90.8333,-509 171.1667,-509 171.1667,-509 176.8333,-509 182.5,-514.6667 182.5,-520.3333 182.5,-520.3333 182.5,-531.6667 182.5,-531.6667 182.5,-537.3333 176.8333,-543 171.1667,-543 171.1667,-543 90.8333,-543 90.8333,-543 85.1667,-543 79.5,-537.3333 79.5,-531.6667 79.5,-531.6667 79.5,-520.3333 79.5,-520.3333 79.5,-514.6667 85.1667,-509 90.8333,-509"/>
</g>
<!-- WRITE_DATA0&#45;&gt;WRITE_DATA1 -->
<g id="edge5" class="edge transition">
<title>WRITE_DATA0&#45;&gt;WRITE_DATA1</title>
<path fill="none" stroke="#000000" d="M134.1123,-589.8015C133.6048,-579.3976 132.9571,-566.1215 132.3842,-554.3768"/>
<polygon fill="#000000" stroke="#000000" points="135.8684,-553.9651 131.8852,-544.1476 128.8767,-554.3063 135.8684,-553.9651"/>
<text text-anchor="start" x="133" y="-564" font-family="Helvetica,sans-Serif" font-size="10.00" fill="#000000">rx_valid = &#39;1&#39; &#160;&#160;</text>
</g>
<!-- APB_SETUP -->
<g id="node12" class="node state regular">
<title>APB_SETUP</title>
<polygon fill="#ffffff" fill-opacity="0.003922" stroke="transparent" stroke-width="2" points="267,-462 175,-462 175,-426 267,-426 267,-462"/>
<text text-anchor="start" x="185.6594" y="-440.2" font-family="Helvetica,sans-Serif" font-size="12.00" fill="#000000">APB_SETUP</text>
<path fill="none" stroke="#000000" stroke-width="2" d="M187.3333,-427C187.3333,-427 254.6667,-427 254.6667,-427 260.3333,-427 266,-432.6667 266,-438.3333 266,-438.3333 266,-449.6667 266,-449.6667 266,-455.3333 260.3333,-461 254.6667,-461 254.6667,-461 187.3333,-461 187.3333,-461 181.6667,-461 176,-455.3333 176,-449.6667 176,-449.6667 176,-438.3333 176,-438.3333 176,-432.6667 181.6667,-427 187.3333,-427"/>
</g>
<!-- WRITE_DATA1&#45;&gt;APB_SETUP -->
<g id="edge6" class="edge transition">
<title>WRITE_DATA1&#45;&gt;APB_SETUP</title>
<path fill="none" stroke="#000000" d="M140.8671,-507.6475C146.4754,-498.3333 154.1169,-487.2713 162.845,-479 167.119,-474.9497 171.9401,-471.1471 176.932,-467.6498"/>
<polygon fill="#000000" stroke="#000000" points="178.9958,-470.4817 185.4277,-462.0625 175.1494,-464.6331 178.9958,-470.4817"/>
<text text-anchor="start" x="162" y="-482" font-family="Helvetica,sans-Serif" font-size="10.00" fill="#000000">rx_valid = &#39;1&#39; &#160;&#160;</text>
</g>
<!-- WRITE_ANSWER_HEADER -->
<g id="node6" class="node state regular">
<title>WRITE_ANSWER_HEADER</title>
<polygon fill="#ffffff" fill-opacity="0.003922" stroke="transparent" stroke-width="2" points="495,-216 319,-216 319,-180 495,-180 495,-216"/>
<text text-anchor="start" x="329.6714" y="-194.2" font-family="Helvetica,sans-Serif" font-size="12.00" fill="#000000">WRITE_ANSWER_HEADER</text>
<path fill="none" stroke="#000000" stroke-width="2" d="M331.3333,-181C331.3333,-181 482.6667,-181 482.6667,-181 488.3333,-181 494,-186.6667 494,-192.3333 494,-192.3333 494,-203.6667 494,-203.6667 494,-209.3333 488.3333,-215 482.6667,-215 482.6667,-215 331.3333,-215 331.3333,-215 325.6667,-215 320,-209.3333 320,-203.6667 320,-203.6667 320,-192.3333 320,-192.3333 320,-186.6667 325.6667,-181 331.3333,-181"/>
</g>
<!-- WRITE_ANSWER_OK -->
<g id="node7" class="node state regular">
<title>WRITE_ANSWER_OK</title>
<polygon fill="#ffffff" fill-opacity="0.003922" stroke="transparent" stroke-width="2" points="510.5,-134 367.5,-134 367.5,-98 510.5,-98 510.5,-134"/>
<text text-anchor="start" x="378.501" y="-112.2" font-family="Helvetica,sans-Serif" font-size="12.00" fill="#000000">WRITE_ANSWER_OK</text>
<path fill="none" stroke="#000000" stroke-width="2" d="M379.8333,-99C379.8333,-99 498.1667,-99 498.1667,-99 503.8333,-99 509.5,-104.6667 509.5,-110.3333 509.5,-110.3333 509.5,-121.6667 509.5,-121.6667 509.5,-127.3333 503.8333,-133 498.1667,-133 498.1667,-133 379.8333,-133 379.8333,-133 374.1667,-133 368.5,-127.3333 368.5,-121.6667 368.5,-121.6667 368.5,-110.3333 368.5,-110.3333 368.5,-104.6667 374.1667,-99 379.8333,-99"/>
</g>
<!-- WRITE_ANSWER_HEADER&#45;&gt;WRITE_ANSWER_OK -->
<g id="edge7" class="edge transition">
<title>WRITE_ANSWER_HEADER&#45;&gt;WRITE_ANSWER_OK</title>
<path fill="none" stroke="#000000" d="M414.1018,-179.8015C418.2448,-169.1853 423.5548,-155.5784 428.206,-143.6596"/>
<polygon fill="#000000" stroke="#000000" points="431.5431,-144.7358 431.918,-134.1476 425.022,-142.1909 431.5431,-144.7358"/>
<text text-anchor="start" x="425" y="-154" font-family="Helvetica,sans-Serif" font-size="10.00" fill="#000000">tx_ready = &#39;1&#39; &#160;&#160;</text>
</g>
<!-- WRITE_ANSWER_OK&#45;&gt;IDLE -->
<g id="edge8" class="edge transition">
<title>WRITE_ANSWER_OK&#45;&gt;IDLE</title>
<path fill="none" stroke="#000000" d="M479.1644,-134.088C486.2353,-138.7557 492.9396,-144.3747 498,-151 515.6677,-174.1314 512.1956,-187.5602 506,-216 479.657,-336.9233 393,-346.7406 393,-470.5 393,-772 393,-772 393,-772 393,-790.5148 376.0989,-802.1215 358.6738,-809.1679"/>
<polygon fill="#000000" stroke="#000000" points="357.2706,-805.953 349.0432,-812.6284 359.6377,-812.5406 357.2706,-805.953"/>
<text text-anchor="start" x="397" y="-441" font-family="Helvetica,sans-Serif" font-size="10.00" fill="#000000">tx_ready = &#39;1&#39; &#160;&#160;</text>
</g>
<!-- READ_ADDRESS&#45;&gt;READ_ADDRESS -->
<g id="edge10" class="edge transition">
<title>READ_ADDRESS&#45;&gt;READ_ADDRESS</title>
<path fill="none" stroke="#000000" d="M282.0686,-686.8063C294.8035,-686.2167 304,-684.2813 304,-681 304,-678.6929 299.4534,-677.0511 292.327,-676.0747"/>
<polygon fill="#000000" stroke="#000000" points="292.3314,-672.5623 282.0686,-675.1937 291.7324,-679.5366 292.3314,-672.5623"/>
<text text-anchor="start" x="304" y="-678" font-family="Helvetica,sans-Serif" font-size="10.00" fill="#000000">not (rx_valid = &#39;1&#39;) &#160;&#160;</text>
</g>
<!-- READ_ADDRESS&#45;&gt;APB_SETUP -->
<g id="edge9" class="edge transition">
<title>READ_ADDRESS&#45;&gt;APB_SETUP</title>
<path fill="none" stroke="#000000" d="M228.3987,-662.68C230.8187,-654.2126 233,-643.9571 233,-634.5 233,-634.5 233,-634.5 233,-485 233,-480.6612 232.3734,-476.1644 231.4065,-471.8084"/>
<polygon fill="#000000" stroke="#000000" points="234.7375,-470.7241 228.6677,-462.0403 227.9974,-472.6139 234.7375,-470.7241"/>
<text text-anchor="start" x="233" y="-564" font-family="Helvetica,sans-Serif" font-size="10.00" fill="#000000">rx_valid = &#39;1&#39; &#160;&#160;</text>
</g>
<!-- READ_ANSWER_HEADER -->
<g id="node9" class="node state regular">
<title>READ_ANSWER_HEADER</title>
<polygon fill="#ffffff" fill-opacity="0.003922" stroke="transparent" stroke-width="2" points="187.5,-216 16.5,-216 16.5,-180 187.5,-180 187.5,-216"/>
<text text-anchor="start" x="27.8348" y="-194.2" font-family="Helvetica,sans-Serif" font-size="12.00" fill="#000000">READ_ANSWER_HEADER</text>
<path fill="none" stroke="#000000" stroke-width="2" d="M28.8333,-181C28.8333,-181 175.1667,-181 175.1667,-181 180.8333,-181 186.5,-186.6667 186.5,-192.3333 186.5,-192.3333 186.5,-203.6667 186.5,-203.6667 186.5,-209.3333 180.8333,-215 175.1667,-215 175.1667,-215 28.8333,-215 28.8333,-215 23.1667,-215 17.5,-209.3333 17.5,-203.6667 17.5,-203.6667 17.5,-192.3333 17.5,-192.3333 17.5,-186.6667 23.1667,-181 28.8333,-181"/>
</g>
<!-- READ_ANSWER_HEADER&#45;&gt;READ_ANSWER_HEADER -->
<g id="edge12" class="edge transition">
<title>READ_ANSWER_HEADER&#45;&gt;READ_ANSWER_HEADER</title>
<path fill="none" stroke="#000000" d="M187.5979,-202.4453C200.6423,-201.7669 209.5,-200.2852 209.5,-198 209.5,-196.3932 205.1209,-195.1837 197.9864,-194.3713"/>
<polygon fill="#000000" stroke="#000000" points="197.8414,-190.8492 187.5979,-193.5547 197.2928,-197.8276 197.8414,-190.8492"/>
<text text-anchor="start" x="209.5" y="-195" font-family="Helvetica,sans-Serif" font-size="10.00" fill="#000000">not (tx_ready = &#39;1&#39;) &#160;&#160;</text>
</g>
<!-- READ_ANSWER_DATA0 -->
<g id="node10" class="node state regular">
<title>READ_ANSWER_DATA0</title>
<polygon fill="#ffffff" fill-opacity="0.003922" stroke="transparent" stroke-width="2" points="228,-134 68,-134 68,-98 228,-98 228,-134"/>
<text text-anchor="start" x="78.9982" y="-112.2" font-family="Helvetica,sans-Serif" font-size="12.00" fill="#000000">READ_ANSWER_DATA0</text>
<path fill="none" stroke="#000000" stroke-width="2" d="M80.3333,-99C80.3333,-99 215.6667,-99 215.6667,-99 221.3333,-99 227,-104.6667 227,-110.3333 227,-110.3333 227,-121.6667 227,-121.6667 227,-127.3333 221.3333,-133 215.6667,-133 215.6667,-133 80.3333,-133 80.3333,-133 74.6667,-133 69,-127.3333 69,-121.6667 69,-121.6667 69,-110.3333 69,-110.3333 69,-104.6667 74.6667,-99 80.3333,-99"/>
</g>
<!-- READ_ANSWER_HEADER&#45;&gt;READ_ANSWER_DATA0 -->
<g id="edge11" class="edge transition">
<title>READ_ANSWER_HEADER&#45;&gt;READ_ANSWER_DATA0</title>
<path fill="none" stroke="#000000" d="M112.2089,-179.8015C118.2835,-168.973 126.1035,-155.033 132.8836,-142.9466"/>
<polygon fill="#000000" stroke="#000000" points="135.9796,-144.5814 137.8196,-134.1476 129.8746,-141.1566 135.9796,-144.5814"/>
<text text-anchor="start" x="128" y="-154" font-family="Helvetica,sans-Serif" font-size="10.00" fill="#000000">tx_ready = &#39;1&#39; &#160;&#160;</text>
</g>
<!-- READ_ANSWER_DATA0&#45;&gt;READ_ANSWER_DATA0 -->
<g id="edge14" class="edge transition">
<title>READ_ANSWER_DATA0&#45;&gt;READ_ANSWER_DATA0</title>
<path fill="none" stroke="#000000" d="M228.3875,-120.4894C241.2178,-119.8324 250,-118.3359 250,-116 250,-114.3575 245.6582,-113.1301 238.6203,-112.3177"/>
<polygon fill="#000000" stroke="#000000" points="238.6318,-108.8078 228.3875,-111.5106 238.0813,-115.7862 238.6318,-108.8078"/>
<text text-anchor="start" x="250" y="-113" font-family="Helvetica,sans-Serif" font-size="10.00" fill="#000000">not (tx_ready = &#39;1&#39;) &#160;&#160;</text>
</g>
<!-- READ_ANSWER_DATA1 -->
<g id="node11" class="node state regular">
<title>READ_ANSWER_DATA1</title>
<polygon fill="#ffffff" fill-opacity="0.003922" stroke="transparent" stroke-width="2" points="386,-52 226,-52 226,-16 386,-16 386,-52"/>
<text text-anchor="start" x="236.9982" y="-30.2" font-family="Helvetica,sans-Serif" font-size="12.00" fill="#000000">READ_ANSWER_DATA1</text>
<path fill="none" stroke="#000000" stroke-width="2" d="M238.3333,-17C238.3333,-17 373.6667,-17 373.6667,-17 379.3333,-17 385,-22.6667 385,-28.3333 385,-28.3333 385,-39.6667 385,-39.6667 385,-45.3333 379.3333,-51 373.6667,-51 373.6667,-51 238.3333,-51 238.3333,-51 232.6667,-51 227,-45.3333 227,-39.6667 227,-39.6667 227,-28.3333 227,-28.3333 227,-22.6667 232.6667,-17 238.3333,-17"/>
</g>
<!-- READ_ANSWER_DATA0&#45;&gt;READ_ANSWER_DATA1 -->
<g id="edge13" class="edge transition">
<title>READ_ANSWER_DATA0&#45;&gt;READ_ANSWER_DATA1</title>
<path fill="none" stroke="#000000" d="M183.0653,-97.8015C206.4658,-85.657 237.4072,-69.5988 262.3937,-56.6311"/>
<polygon fill="#000000" stroke="#000000" points="264.0413,-59.7194 271.3049,-52.0063 260.8167,-53.5063 264.0413,-59.7194"/>
<text text-anchor="start" x="237" y="-72" font-family="Helvetica,sans-Serif" font-size="10.00" fill="#000000">tx_ready = &#39;1&#39; &#160;&#160;</text>
</g>
<!-- READ_ANSWER_DATA1&#45;&gt;IDLE -->
<g id="edge15" class="edge transition">
<title>READ_ANSWER_DATA1&#45;&gt;IDLE</title>
<path fill="none" stroke="#000000" d="M386.2281,-40.4885C454.6449,-47.1419 542,-58.8075 542,-75 542,-171.5 542,-171.5 542,-171.5 542,-306.866 484,-335.134 484,-470.5 484,-772 484,-772 484,-772 484,-797.8605 407.2944,-810.3583 359.1222,-815.6573"/>
<polygon fill="#000000" stroke="#000000" points="358.6041,-812.1922 349.0207,-816.7099 359.3296,-819.1545 358.6041,-812.1922"/>
<text text-anchor="start" x="490" y="-400" font-family="Helvetica,sans-Serif" font-size="10.00" fill="#000000">tx_ready = &#39;1&#39; &#160;&#160;</text>
</g>
<!-- READ_ANSWER_DATA1&#45;&gt;READ_ANSWER_DATA1 -->
<g id="edge16" class="edge transition">
<title>READ_ANSWER_DATA1&#45;&gt;READ_ANSWER_DATA1</title>
<path fill="none" stroke="#000000" d="M386.3875,-38.4894C399.2178,-37.8324 408,-36.3359 408,-34 408,-32.3575 403.6582,-31.1301 396.6203,-30.3177"/>
<polygon fill="#000000" stroke="#000000" points="396.6318,-26.8078 386.3875,-29.5106 396.0813,-33.7862 396.6318,-26.8078"/>
<text text-anchor="start" x="408" y="-31" font-family="Helvetica,sans-Serif" font-size="10.00" fill="#000000">not (tx_ready = &#39;1&#39;) &#160;&#160;</text>
</g>
<!-- APB_EXECUTE -->
<g id="node13" class="node state regular">
<title>APB_EXECUTE</title>
<polygon fill="#ffffff" fill-opacity="0.003922" stroke="transparent" stroke-width="2" points="275.5,-380 166.5,-380 166.5,-344 275.5,-344 275.5,-380"/>
<text text-anchor="start" x="177.8266" y="-358.2" font-family="Helvetica,sans-Serif" font-size="12.00" fill="#000000">APB_EXECUTE</text>
<path fill="none" stroke="#000000" stroke-width="2" d="M178.8333,-345C178.8333,-345 263.1667,-345 263.1667,-345 268.8333,-345 274.5,-350.6667 274.5,-356.3333 274.5,-356.3333 274.5,-367.6667 274.5,-367.6667 274.5,-373.3333 268.8333,-379 263.1667,-379 263.1667,-379 178.8333,-379 178.8333,-379 173.1667,-379 167.5,-373.3333 167.5,-367.6667 167.5,-367.6667 167.5,-356.3333 167.5,-356.3333 167.5,-350.6667 173.1667,-345 178.8333,-345"/>
</g>
<!-- APB_SETUP&#45;&gt;APB_EXECUTE -->
<g id="edge17" class="edge transition">
<title>APB_SETUP&#45;&gt;APB_EXECUTE</title>
<path fill="none" stroke="#000000" d="M221,-425.8015C221,-415.3976 221,-402.1215 221,-390.3768"/>
<polygon fill="#000000" stroke="#000000" points="224.5001,-390.1476 221,-380.1476 217.5001,-390.1476 224.5001,-390.1476"/>
<text text-anchor="middle" x="222.3895" y="-400" font-family="Helvetica,sans-Serif" font-size="10.00" fill="#000000"> </text>
</g>
<!-- APB_DONE -->
<g id="node14" class="node state regular">
<title>APB_DONE</title>
<polygon fill="#ffffff" fill-opacity="0.003922" stroke="transparent" stroke-width="2" points="264.5,-298 177.5,-298 177.5,-262 264.5,-262 264.5,-298"/>
<text text-anchor="start" x="188.8288" y="-276.2" font-family="Helvetica,sans-Serif" font-size="12.00" fill="#000000">APB_DONE</text>
<path fill="none" stroke="#000000" stroke-width="2" d="M189.8333,-263C189.8333,-263 252.1667,-263 252.1667,-263 257.8333,-263 263.5,-268.6667 263.5,-274.3333 263.5,-274.3333 263.5,-285.6667 263.5,-285.6667 263.5,-291.3333 257.8333,-297 252.1667,-297 252.1667,-297 189.8333,-297 189.8333,-297 184.1667,-297 178.5,-291.3333 178.5,-285.6667 178.5,-285.6667 178.5,-274.3333 178.5,-274.3333 178.5,-268.6667 184.1667,-263 189.8333,-263"/>
</g>
<!-- APB_EXECUTE&#45;&gt;APB_DONE -->
<g id="edge18" class="edge transition">
<title>APB_EXECUTE&#45;&gt;APB_DONE</title>
<path fill="none" stroke="#000000" d="M221,-343.8015C221,-333.3976 221,-320.1215 221,-308.3768"/>
<polygon fill="#000000" stroke="#000000" points="224.5001,-308.1476 221,-298.1476 217.5001,-308.1476 224.5001,-308.1476"/>
<text text-anchor="middle" x="222.3895" y="-318" font-family="Helvetica,sans-Serif" font-size="10.00" fill="#000000"> </text>
</g>
<!-- APB_DONE&#45;&gt;WRITE_ANSWER_HEADER -->
<g id="edge19" class="edge transition">
<title>APB_DONE&#45;&gt;WRITE_ANSWER_HEADER</title>
<path fill="none" stroke="#000000" d="M262.2794,-261.8015C290.1893,-249.4972 327.2115,-233.1756 356.8234,-220.1209"/>
<polygon fill="#000000" stroke="#000000" points="358.418,-223.243 366.1563,-216.0063 355.5942,-216.8378 358.418,-223.243"/>
<text text-anchor="start" x="326" y="-236" font-family="Helvetica,sans-Serif" font-size="10.00" fill="#000000">write_flag = &#39;1&#39; &#160;&#160;</text>
</g>
<!-- APB_DONE&#45;&gt;READ_ANSWER_HEADER -->
<g id="edge20" class="edge transition">
<title>APB_DONE&#45;&gt;READ_ANSWER_HEADER</title>
<path fill="none" stroke="#000000" d="M181.7967,-261.8688C172.2545,-256.8659 162.278,-251.1162 153.509,-245 144.4238,-238.6633 135.2528,-230.852 127.218,-223.4299"/>
<polygon fill="#000000" stroke="#000000" points="129.2698,-220.5518 119.6071,-216.2064 124.451,-225.6291 129.2698,-220.5518"/>
<text text-anchor="start" x="153" y="-236" font-family="Helvetica,sans-Serif" font-size="10.00" fill="#000000">write_flag = &#39;0&#39; &#160;&#160;</text>
</g>
</g>
</svg>
